<?xml version="1.0" encoding="UTF-8" standalone="no"?>
<!-- Created with Inkscape (http://www.inkscape.org/) -->

<svg
   xmlns:dc="http://purl.org/dc/elements/1.1/"
   xmlns:cc="http://creativecommons.org/ns#"
   xmlns:rdf="http://www.w3.org/1999/02/22-rdf-syntax-ns#"
   xmlns:svg="http://www.w3.org/2000/svg"
   xmlns="http://www.w3.org/2000/svg"
   xmlns:xlink="http://www.w3.org/1999/xlink"
   xmlns:sodipodi="http://sodipodi.sourceforge.net/DTD/sodipodi-0.dtd"
   xmlns:inkscape="http://www.inkscape.org/namespaces/inkscape"
   width="800"
   height="600"
   viewBox="0 0 800.00001 600.00001"
   id="svg4142"
   version="1.1"
   inkscape:version="0.91 r13725"
   inkscape:export-filename="C:\Users\ryo\Desktop\AsamaMain.png"
   inkscape:export-xdpi="200"
   inkscape:export-ydpi="200"
   sodipodi:docname="SanctFrame.svg">
  <defs
     id="defs4144">
    <marker
       inkscape:stockid="Arrow2Sstart"
       orient="auto"
       refY="0.0"
       refX="0.0"
       id="Arrow2Sstart"
       style="overflow:visible"
       inkscape:isstock="true">
      <path
         id="path4268"
         style="fill-rule:evenodd;stroke-width:0.625;stroke-linejoin:round;stroke:#000000;stroke-opacity:1;fill:#000000;fill-opacity:1"
         d="M 8.7185878,4.0337352 L -2.2072895,0.016013256 L 8.7185884,-4.0017078 C 6.9730900,-1.6296469 6.9831476,1.6157441 8.7185878,4.0337352 z "
         transform="scale(0.3) translate(-2.3,0)" />
    </marker>
    <marker
       inkscape:stockid="StopM"
       orient="auto"
       refY="0.0"
       refX="0.0"
       id="StopM"
       style="overflow:visible"
       inkscape:isstock="true">
      <path
         id="path4410"
         d="M 0.0,5.65 L 0.0,-5.65"
         style="fill:none;fill-opacity:0.75;fill-rule:evenodd;stroke:#000000;stroke-width:1pt;stroke-opacity:1"
         transform="scale(0.4)" />
    </marker>
    <marker
       inkscape:stockid="Arrow2Send"
       orient="auto"
       refY="0.0"
       refX="0.0"
       id="Arrow2Send"
       style="overflow:visible;"
       inkscape:isstock="true">
      <path
         id="path4271"
         style="fill-rule:evenodd;stroke-width:0.625;stroke-linejoin:round;stroke:#000000;stroke-opacity:1;fill:#000000;fill-opacity:1"
         d="M 8.7185878,4.0337352 L -2.2072895,0.016013256 L 8.7185884,-4.0017078 C 6.9730900,-1.6296469 6.9831476,1.6157441 8.7185878,4.0337352 z "
         transform="scale(0.3) rotate(180) translate(-2.3,0)" />
    </marker>
    <marker
       inkscape:stockid="Arrow2Mstart"
       orient="auto"
       refY="0.0"
       refX="0.0"
       id="Arrow2Mstart"
       style="overflow:visible"
       inkscape:isstock="true">
      <path
         id="path4262"
         style="fill-rule:evenodd;stroke-width:0.625;stroke-linejoin:round;stroke:#000000;stroke-opacity:1;fill:#000000;fill-opacity:1"
         d="M 8.7185878,4.0337352 L -2.2072895,0.016013256 L 8.7185884,-4.0017078 C 6.9730900,-1.6296469 6.9831476,1.6157441 8.7185878,4.0337352 z "
         transform="scale(0.6) translate(0,0)" />
    </marker>
    <marker
       inkscape:stockid="TriangleInL"
       orient="auto"
       refY="0.0"
       refX="0.0"
       id="TriangleInL"
       style="overflow:visible"
       inkscape:isstock="true">
      <path
         id="path4371"
         d="M 5.77,0.0 L -2.88,5.0 L -2.88,-5.0 L 5.77,0.0 z "
         style="fill-rule:evenodd;stroke:#000000;stroke-width:1pt;stroke-opacity:1;fill:#000000;fill-opacity:1"
         transform="scale(-0.8)" />
    </marker>
    <marker
       inkscape:isstock="true"
       style="overflow:visible"
       id="marker4604"
       refX="0.0"
       refY="0.0"
       orient="auto"
       inkscape:stockid="DotL">
      <path
         transform="scale(0.8) translate(7.4, 1)"
         style="fill-rule:evenodd;stroke:#000000;stroke-width:1pt;stroke-opacity:1;fill:#ffffff;fill-opacity:1"
         d="M -2.5,-1.0 C -2.5,1.7600000 -4.7400000,4.0 -7.5,4.0 C -10.260000,4.0 -12.5,1.7600000 -12.5,-1.0 C -12.5,-3.7600000 -10.260000,-6.0 -7.5,-6.0 C -4.7400000,-6.0 -2.5,-3.7600000 -2.5,-1.0 z "
         id="path4606" />
    </marker>
    <marker
       inkscape:isstock="true"
       style="overflow:visible"
       id="marker4536"
       refX="0.0"
       refY="0.0"
       orient="auto"
       inkscape:stockid="DotL">
      <path
         transform="scale(0.8) translate(7.4, 1)"
         style="fill-rule:evenodd;stroke:#ffffff;stroke-width:1pt;stroke-opacity:1;fill:#ffffff;fill-opacity:1"
         d="M -2.5,-1.0 C -2.5,1.7600000 -4.7400000,4.0 -7.5,4.0 C -10.260000,4.0 -12.5,1.7600000 -12.5,-1.0 C -12.5,-3.7600000 -10.260000,-6.0 -7.5,-6.0 C -4.7400000,-6.0 -2.5,-3.7600000 -2.5,-1.0 z "
         id="path4538" />
    </marker>
    <marker
       inkscape:isstock="true"
       style="overflow:visible"
       id="marker4514"
       refX="0.0"
       refY="0.0"
       orient="auto"
       inkscape:stockid="DotL">
      <path
         transform="scale(0.8) translate(7.4, 1)"
         style="fill-rule:evenodd;stroke:#ffffff;stroke-width:1pt;stroke-opacity:1;fill:#ffffff;fill-opacity:1"
         d="M -2.5,-1.0 C -2.5,1.7600000 -4.7400000,4.0 -7.5,4.0 C -10.260000,4.0 -12.5,1.7600000 -12.5,-1.0 C -12.5,-3.7600000 -10.260000,-6.0 -7.5,-6.0 C -4.7400000,-6.0 -2.5,-3.7600000 -2.5,-1.0 z "
         id="path4516" />
    </marker>
    <linearGradient
       id="linearGradient4708"
       inkscape:collect="always">
      <stop
         id="stop4710"
         offset="0"
         style="stop-color:#f92500;stop-opacity:1;" />
      <stop
         id="stop4712"
         offset="1"
         style="stop-color:#ff5046;stop-opacity:1" />
    </linearGradient>
    <linearGradient
       gradientUnits="userSpaceOnUse"
       y2="1052.3622"
       x2="50"
       y1="597.36218"
       x1="50"
       id="linearGradient4714"
       xlink:href="#linearGradient4708"
       inkscape:collect="always" />
  </defs>
  <sodipodi:namedview
     id="base"
     pagecolor="#1e1e1e"
     bordercolor="#666666"
     borderopacity="1.0"
     inkscape:pageopacity="0"
     inkscape:pageshadow="2"
     inkscape:zoom="0.57792989"
     inkscape:cx="332.32254"
     inkscape:cy="344.39866"
     inkscape:document-units="px"
     inkscape:current-layer="layer2"
     showgrid="true"
     units="px"
     inkscape:window-width="1366"
     inkscape:window-height="745"
     inkscape:window-x="-8"
     inkscape:window-y="-8"
     inkscape:window-maximized="1">
    <inkscape:grid
       type="xygrid"
       id="grid4690" />
  </sodipodi:namedview>
  <metadata
     id="metadata4147">
    <rdf:RDF>
      <cc:Work
         rdf:about="">
        <dc:format>image/svg+xml</dc:format>
        <dc:type
           rdf:resource="http://purl.org/dc/dcmitype/StillImage" />
        <dc:title />
      </cc:Work>
    </rdf:RDF>
  </metadata>
  <g
     inkscape:groupmode="layer"
     id="layer2"
     inkscape:label="Sanct"
     style="display:inline;opacity:1">
    <g
       transform="translate(-0.09155119,-452.33749)"
       id="layer1-0"
       inkscape:label="レイヤー 1">
      <path
         sodipodi:nodetypes="ccccccccccccccccccccccccscc"
         inkscape:connector-curvature="0"
         id="path4696-39"
         d="m 0.08984375,452.33872 5.00390625,25.00473 5,0 5,15 15,0 0,5 5,0 0,99.99527 30,0 0,-99.99527 5,0 0,-5 659.99609,-0.004 0,5 5,0 0,99.99527 30,0 0,-99.99527 5,0 0,-5 15,0 5,-15 5,0 5,-25.00473 c 0,0 -266.62501,10.00734 -400,10.00734 -133.37499,0 -399.99999625,-10.00344 -399.99999625,-10.00344 z"
         style="fill:#f92500;fill-opacity:1;fill-rule:evenodd;stroke:#ffffff;stroke-width:2;stroke-linecap:butt;stroke-linejoin:miter;stroke-miterlimit:4;stroke-dasharray:none;stroke-opacity:1" />
      <path
         sodipodi:nodetypes="ccccccccccccccccccccccccccccc"
         inkscape:connector-curvature="0"
         id="path4698"
         d="m 15.089844,602.33872 0,30 20,0 0,400.00008 -20,0 0,20 70,0 0,-20 -20,0 0,-400.00008 669.999996,0 0,400.00008 -20,0 0,20 70,0 0,-20 -20,0 0,-400.00008 20,0 0,-30 -15,0 0,-5 -39.99914,0.004 -0.002,4.99391 -660.002622,-0.003 0.0053,-4.99097 -40.001534,-0.004 0,5 z"
         style="fill:url(#linearGradient4714);fill-opacity:1;fill-rule:evenodd;stroke:#ffffff;stroke-width:2;stroke-linecap:butt;stroke-linejoin:miter;stroke-miterlimit:4;stroke-dasharray:none;stroke-opacity:1" />
      <rect
         y="595.33746"
         x="737.09155"
         height="4.000061"
         width="26.000002"
         id="rect4700"
         style="fill:#f92500;fill-opacity:1;stroke:#f92500;stroke-width:2;stroke-miterlimit:4;stroke-dasharray:none;stroke-opacity:1" />
      <rect
         y="595.33746"
         x="37.091553"
         height="4.0000267"
         width="25.999998"
         id="rect4706"
         style="fill:#f92500;fill-opacity:1;stroke:#f92500;stroke-width:2;stroke-miterlimit:4;stroke-dasharray:none;stroke-opacity:1" />
    </g>
  </g>
</svg>
